<svg xmlns="http://www.w3.org/2000/svg" xmlns:xlink="http://www.w3.org/1999/xlink" width="1103" height="567" viewBox="0 0 1103 567">
  <defs>
    <clipPath id="clip-path">
      <rect id="長方形_2" data-name="長方形 2" width="1103" height="567" rx="7" transform="translate(237 83)" fill="none" stroke="#efefef" stroke-width="3"/>
    </clipPath>
  </defs>
  <g id="マスクグループ_1" data-name="マスクグループ 1" transform="translate(-237 -83)" clip-path="url(#clip-path)">
    <g id="グループ_7" data-name="グループ 7" transform="translate(30 -2)">
      <g id="グループ_4" data-name="グループ 4" transform="translate(56)">
        <g id="パス_4" data-name="パス 4" transform="translate(332 167)" fill="none">
          <path d="M0,0H248V12L130.232,22.531,0,12Z" stroke="none"/>
          <path d="M 1 0.9999866485595703 L 1 11.07758331298828 L 130.2276611328125 21.52749824523926 L 247 11.08541297912598 L 247 0.9999866485595703 L 1 0.9999866485595703 M 0 -1.33514404296875e-05 L 248 -1.33514404296875e-05 L 248 11.99998664855957 L 130.23193359375 22.5311107635498 L 0 11.99998664855957 L 0 -1.33514404296875e-05 Z" stroke="none" fill="#727272"/>
        </g>
        <g id="パス_5" data-name="パス 5" transform="translate(579 167)" fill="none">
          <path d="M0,0H248V12L130.232,22.531,0,12Z" stroke="none"/>
          <path d="M 1 0.9999866485595703 L 1 11.07758331298828 L 130.2276611328125 21.52749824523926 L 247 11.08541297912598 L 247 0.9999866485595703 L 1 0.9999866485595703 M 0 -1.33514404296875e-05 L 248 -1.33514404296875e-05 L 248 11.99998664855957 L 130.23193359375 22.5311107635498 L 0 11.99998664855957 L 0 -1.33514404296875e-05 Z" stroke="none" fill="#727272"/>
        </g>
        <g id="パス_6" data-name="パス 6" transform="translate(826 167)" fill="none">
          <path d="M0,0H248V12L130.232,22.531,0,12Z" stroke="none"/>
          <path d="M 1 0.9999866485595703 L 1 11.07758331298828 L 130.2276611328125 21.52749824523926 L 247 11.08541297912598 L 247 0.9999866485595703 L 1 0.9999866485595703 M 0 -1.33514404296875e-05 L 248 -1.33514404296875e-05 L 248 11.99998664855957 L 130.23193359375 22.5311107635498 L 0 11.99998664855957 L 0 -1.33514404296875e-05 Z" stroke="none" fill="#727272"/>
        </g>
      </g>
      <g id="グループ_8" data-name="グループ 8" transform="translate(-0.403)">
        <path id="パス_7" data-name="パス 7" d="M3745.869,544.626l344.067,56.57h374.009l342.141-56.57" transform="translate(-3515 1)" fill="none" stroke="#727272" stroke-width="1"/>
        <g id="グループ_5" data-name="グループ 5" transform="matrix(0.53, -0.848, 0.848, 0.53, -192.154, 882.371)">
          <g id="パス_4-2" data-name="パス 4" transform="translate(329.774 167.212)" fill="none">
            <path d="M0,0H186.113V12L97.733,22.531,0,12Z" stroke="none"/>
            <path d="M 1 1.000001907348633 L 1 11.10197162628174 L 97.72750854492188 21.52470016479492 L 185.1128234863281 11.11208534240723 L 185.1128234863281 1.000001907348633 L 1 1.000001907348633 M 0 1.9073486328125e-06 L 186.1128234863281 1.9073486328125e-06 L 186.1128234863281 12.00000095367432 L 97.73320007324219 22.53109550476074 L 0 12.00000095367432 L 0 1.9073486328125e-06 Z" stroke="none" fill="#727272"/>
          </g>
          <g id="パス_5-2" data-name="パス 5" transform="translate(515.136 167.212)" fill="none">
            <path d="M0,0H186.113V12L97.733,22.531,0,12Z" stroke="none"/>
            <path d="M 1 1.000001907348633 L 1 11.10197162628174 L 97.72750854492188 21.52470016479492 L 185.1128234863281 11.11208534240723 L 185.1128234863281 1.000001907348633 L 1 1.000001907348633 M 0 1.9073486328125e-06 L 186.1128234863281 1.9073486328125e-06 L 186.1128234863281 12.00000095367432 L 97.73320007324219 22.53109550476074 L 0 12.00000095367432 L 0 1.9073486328125e-06 Z" stroke="none" fill="#727272"/>
          </g>
          <g id="パス_6-2" data-name="パス 6" transform="translate(700.473 167)" fill="none">
            <path d="M0,0H186.113V12L97.733,22.531,0,12Z" stroke="none"/>
            <path d="M 1 1.000001907348633 L 1 11.10197162628174 L 97.72750854492188 21.52470016479492 L 185.1128234863281 11.11208534240723 L 185.1128234863281 1.000001907348633 L 1 1.000001907348633 M 0 1.9073486328125e-06 L 186.1128234863281 1.9073486328125e-06 L 186.1128234863281 12.00000095367432 L 97.73320007324219 22.53109550476074 L 0 12.00000095367432 L 0 1.9073486328125e-06 Z" stroke="none" fill="#727272"/>
          </g>
        </g>
        <g id="グループ_12" data-name="グループ 12" transform="matrix(0.53, 0.848, -0.848, 0.53, 1067.381, -149.161)">
          <g id="パス_4-3" data-name="パス 4" transform="translate(329.774 167.212)" fill="none">
            <path d="M0,0H186.113V12L97.733,22.531,0,12Z" stroke="none"/>
            <path d="M 1 1.000001907348633 L 1 11.10197162628174 L 97.72750854492188 21.52470016479492 L 185.1128234863281 11.11208534240723 L 185.1128234863281 1.000001907348633 L 1 1.000001907348633 M 0 1.9073486328125e-06 L 186.1128234863281 1.9073486328125e-06 L 186.1128234863281 12.00000095367432 L 97.73320007324219 22.53109550476074 L 0 12.00000095367432 L 0 1.9073486328125e-06 Z" stroke="none" fill="#727272"/>
          </g>
          <g id="パス_5-3" data-name="パス 5" transform="translate(515.136 167.212)" fill="none">
            <path d="M0,0H186.113V12L97.733,22.531,0,12Z" stroke="none"/>
            <path d="M 1 1.000001907348633 L 1 11.10197162628174 L 97.72750854492188 21.52470016479492 L 185.1128234863281 11.11208534240723 L 185.1128234863281 1.000001907348633 L 1 1.000001907348633 M 0 1.9073486328125e-06 L 186.1128234863281 1.9073486328125e-06 L 186.1128234863281 12.00000095367432 L 97.73320007324219 22.53109550476074 L 0 12.00000095367432 L 0 1.9073486328125e-06 Z" stroke="none" fill="#727272"/>
          </g>
          <g id="パス_6-3" data-name="パス 6" transform="translate(700.473 167)" fill="none">
            <path d="M0,0H186.113V12L97.733,22.531,0,12Z" stroke="none"/>
            <path d="M 1 1.000001907348633 L 1 11.10197162628174 L 97.72750854492188 21.52470016479492 L 185.1128234863281 11.11208534240723 L 185.1128234863281 1.000001907348633 L 1 1.000001907348633 M 0 1.9073486328125e-06 L 186.1128234863281 1.9073486328125e-06 L 186.1128234863281 12.00000095367432 L 97.73320007324219 22.53109550476074 L 0 12.00000095367432 L 0 1.9073486328125e-06 Z" stroke="none" fill="#727272"/>
          </g>
        </g>
      </g>
    </g>
  </g>
</svg>
