<svg xmlns="http://www.w3.org/2000/svg" width="26.254" height="9.836" viewBox="0 0 26.254 9.836">
  <path id="パス_9" data-name="パス 9" d="M-16.174,19.807q-.141,0-.281-.006c-2.385-.105-4.486-1.475-6.244-4.071-1.181-1.744-2.5-2.67-3.907-2.753a5.885,5.885,0,0,0-3.7,1.309,11.028,11.028,0,0,0-1.789,1.58,1.5,1.5,0,0,1-2.114.165,1.5,1.5,0,0,1-.165-2.116,13.853,13.853,0,0,1,2.262-2.025,9,9,0,0,1,5.667-1.908c2.4.134,4.5,1.5,6.233,4.066,1.194,1.764,2.5,2.691,3.883,2.755,2.235.1,4.5-2.032,5.189-2.865a1.5,1.5,0,0,1,2.109-.214,1.5,1.5,0,0,1,.214,2.112,13.342,13.342,0,0,1-2.154,2.017A8.792,8.792,0,0,1-16.174,19.807Z" transform="translate(34.737 -9.971)" fill="#1d1d1d"/>
</svg>
