<svg xmlns="http://www.w3.org/2000/svg" width="123.14" height="19.18" viewBox="0 0 123.14 19.18">
  <path id="パス_12" data-name="パス 12" d="M1.52-13.34V0H4.96A7.655,7.655,0,0,0,9.84-1.28a6.361,6.361,0,0,0,2.68-5.38,6.6,6.6,0,0,0-2.56-5.38A7.769,7.769,0,0,0,5-13.34Zm2.6,2.24h.8a5.428,5.428,0,0,1,3.28.88A4.445,4.445,0,0,1,9.84-6.66,4.339,4.339,0,0,1,8.18-3.12a5.582,5.582,0,0,1-3.26.88h-.8Zm17.7,8.32A2.233,2.233,0,0,1,19.8-1.64a2.061,2.061,0,0,1-1.74-.82,2.555,2.555,0,0,1-.42-1.46h6.48v-.2a5.177,5.177,0,0,0-1.04-3.4A4.139,4.139,0,0,0,19.7-8.94a4.437,4.437,0,0,0-3.26,1.22,4.612,4.612,0,0,0-1.32,3.4A4.364,4.364,0,0,0,16.48-.94,4.533,4.533,0,0,0,19.8.28a4.278,4.278,0,0,0,4.26-2.7Zm-4.1-2.7a2.038,2.038,0,0,1,2.04-1.74,2.04,2.04,0,0,1,2.06,1.74Zm15.2-2.54a4.319,4.319,0,0,0-2.76-.92,3.574,3.574,0,0,0-2.26.62A2.572,2.572,0,0,0,27-6.36a2.323,2.323,0,0,0,.66,1.66,4.672,4.672,0,0,0,1.86,1.04l.56.2a.966.966,0,0,1,.76.88c0,.6-.52.94-1.2.94a2.685,2.685,0,0,1-1.92-1L26.44-1.16A4.377,4.377,0,0,0,29.8.28a3.637,3.637,0,0,0,2.6-.92,2.878,2.878,0,0,0,.96-2.2,2.511,2.511,0,0,0-.44-1.44,4.436,4.436,0,0,0-2.2-1.24l-.58-.18c-.68-.22-.78-.56-.78-.78,0-.42.36-.7.94-.7a2.026,2.026,0,0,1,1.42.58Zm3.16-.64V0h2.44V-8.66Zm-.24-3.66a1.468,1.468,0,0,0,1.46,1.46,1.468,1.468,0,0,0,1.46-1.46,1.468,1.468,0,0,0-1.46-1.46A1.468,1.468,0,0,0,35.84-12.32Zm12.6,4.78a3.047,3.047,0,0,0-2.72-1.4,4.238,4.238,0,0,0-2.98,1.16A4.818,4.818,0,0,0,41.4-4.34,4.758,4.758,0,0,0,42.78-.9a4.1,4.1,0,0,0,3,1.18,3.035,3.035,0,0,0,2.66-1.44V.06a2.44,2.44,0,0,1-.62,1.92,2.058,2.058,0,0,1-1.48.54,2.153,2.153,0,0,1-1.48-.46,2.08,2.08,0,0,1-.6-1.04H41.62a4.8,4.8,0,0,0,1.4,2.58,4.71,4.71,0,0,0,3.24,1,4.6,4.6,0,0,0,3.42-1.22A4.963,4.963,0,0,0,50.88-.4V-8.66H48.44Zm-2.12.76a2.222,2.222,0,0,1,1.7.7,2.466,2.466,0,0,1,.7,1.74,2.552,2.552,0,0,1-.78,1.86,2.453,2.453,0,0,1-1.62.6,2.369,2.369,0,0,1-1.76-.76,2.4,2.4,0,0,1-.64-1.7,2.374,2.374,0,0,1,.78-1.84A2.347,2.347,0,0,1,46.32-6.78ZM54.2,0h2.44V-4.42a2.98,2.98,0,0,1,.38-1.68,1.664,1.664,0,0,1,1.5-.76,1.562,1.562,0,0,1,1.14.44,2.482,2.482,0,0,1,.46,1.7V0h2.44V-5.44a3.648,3.648,0,0,0-.68-2.44,3.311,3.311,0,0,0-2.56-1.06,3.18,3.18,0,0,0-2.68,1.4V-8.66H54.2ZM74.16-12.08a5.13,5.13,0,0,0-3.78-1.56c-2.96,0-4.28,1.96-4.28,3.92a3.1,3.1,0,0,0,1.06,2.48,6.419,6.419,0,0,0,2.22,1.16,5.975,5.975,0,0,1,2.06.98,1.549,1.549,0,0,1,.52,1.2A1.871,1.871,0,0,1,69.9-2.06a3.128,3.128,0,0,1-2.8-1.78L65.4-2.22A5.491,5.491,0,0,0,70,.3a4.293,4.293,0,0,0,4.64-4.38,3.628,3.628,0,0,0-1.14-2.8,7.761,7.761,0,0,0-2.7-1.34,4.547,4.547,0,0,1-1.6-.76,1.124,1.124,0,0,1-.42-.9c0-.68.44-1.56,1.84-1.56A2.606,2.606,0,0,1,72.8-10.3ZM77.56,0H80V-4.42a2.98,2.98,0,0,1,.38-1.68,1.664,1.664,0,0,1,1.5-.76,1.562,1.562,0,0,1,1.14.44,2.482,2.482,0,0,1,.46,1.7V0h2.44V-5.44a3.648,3.648,0,0,0-.68-2.44,3.311,3.311,0,0,0-2.56-1.06A3.18,3.18,0,0,0,80-7.54v-7.04H77.56ZM95.28-2.78a2.233,2.233,0,0,1-2.02,1.14,2.061,2.061,0,0,1-1.74-.82,2.555,2.555,0,0,1-.42-1.46h6.48v-.2a5.177,5.177,0,0,0-1.04-3.4,4.139,4.139,0,0,0-3.38-1.42A4.437,4.437,0,0,0,89.9-7.72a4.612,4.612,0,0,0-1.32,3.4A4.364,4.364,0,0,0,89.94-.94,4.533,4.533,0,0,0,93.26.28a4.278,4.278,0,0,0,4.26-2.7Zm-4.1-2.7a2.038,2.038,0,0,1,2.04-1.74,2.04,2.04,0,0,1,2.06,1.74Zm15.54,2.7a2.233,2.233,0,0,1-2.02,1.14,2.061,2.061,0,0,1-1.74-.82,2.555,2.555,0,0,1-.42-1.46h6.48v-.2a5.177,5.177,0,0,0-1.04-3.4,4.139,4.139,0,0,0-3.38-1.42,4.437,4.437,0,0,0-3.26,1.22,4.612,4.612,0,0,0-1.32,3.4,4.364,4.364,0,0,0,1.36,3.38A4.533,4.533,0,0,0,104.7.28a4.278,4.278,0,0,0,4.26-2.7Zm-4.1-2.7a2.038,2.038,0,0,1,2.04-1.74,2.04,2.04,0,0,1,2.06,1.74Zm13.4-1.1V-8.66h-1.68v-2.96H111.9v2.96h-.96v2.08h.96V0h2.44V-6.58Zm8.2-1.44a4.319,4.319,0,0,0-2.76-.92,3.574,3.574,0,0,0-2.26.62,2.572,2.572,0,0,0-.9,1.96,2.323,2.323,0,0,0,.66,1.66,4.672,4.672,0,0,0,1.86,1.04l.56.2a.966.966,0,0,1,.76.88c0,.6-.52.94-1.2.94a2.685,2.685,0,0,1-1.92-1l-1.28,1.48A4.377,4.377,0,0,0,121.1.28a3.637,3.637,0,0,0,2.6-.92,2.878,2.878,0,0,0,.96-2.2,2.511,2.511,0,0,0-.44-1.44,4.436,4.436,0,0,0-2.2-1.24l-.58-.18c-.68-.22-.78-.56-.78-.78,0-.42.36-.7.94-.7a2.026,2.026,0,0,1,1.42.58Z" transform="translate(-1.52 14.58)" fill="#1d1d1d"/>
</svg>
