<svg xmlns="http://www.w3.org/2000/svg" width="20.469" height="22.311" viewBox="0 0 20.469 22.311">
  <g id="グランドピアノのアイコン素材_2" data-name="グランドピアノのアイコン素材 2" transform="translate(-55.553)">
    <path id="パス_10" data-name="パス 10" d="M55.553,359.46v6.647H76.022V359.46Zm3.585,3.386v-2.192h.888v2.192h.884v-2.192H61.8v2.192h.888v-2.192h.884v2.192h.888v-2.192h.888v2.192h.884v-2.192h.888v2.192h.888v-2.192h.884v2.192h.888v-2.192h.888v2.192h.884v-2.192h.888v2.192h.888v-2.192h1.016v2.986a.5.5,0,0,1-.535.456H57.768a.5.5,0,0,1-.535-.456v-2.986H58.25v2.192Z" transform="translate(0 -343.796)" fill="#1d1d1d"/>
    <path id="パス_11" data-name="パス 11" d="M72.53,10.469c-2.718-1.586-3.2-3.679-3.884-5.308C67.738,2.979,66.6-.046,61.489,0a9.862,9.862,0,0,0-2.582.328l-.006,0c-.18.051-.352.106-.513.166l-.059.024q-.184.072-.353.152c-.052.024-.1.049-.154.075-.095.049-.185.1-.273.152-.06.036-.119.072-.177.11q-.12.08-.23.165c-.061.046-.119.094-.176.143s-.106.095-.156.143-.124.123-.182.187-.119.135-.174.2c-.036.046-.071.094-.1.142q-.092.129-.172.263c-.02.033-.039.067-.057.1a3.948,3.948,0,0,0-.177.361l-.012.027a5.323,5.323,0,0,0-.377,2.062V15.149H76.024V14.021C76.024,11.7,74.31,11.51,72.53,10.469Z" transform="translate(-0.002 0)" fill="#1d1d1d"/>
  </g>
</svg>
